<svg width="643" height="540" viewBox="0 0 643 540" fill="none" xmlns="http://www.w3.org/2000/svg">
<rect x="40.678" y="65.0847" width="602.034" height="408.814" rx="17" fill="#F8F8FA"/>
<rect x="53.8983" y="81.356" width="575.593" height="376.271" rx="9" fill="#F0F0F2"/>
<path fill-rule="evenodd" clip-rule="evenodd" d="M406.78 473.898H277.627V521.695L268.475 540H277.627H406.78H414.915L406.78 521.695V473.898Z" fill="url(#paint0_linear_7037_12)"/>
<rect x="72.2034" y="100.678" width="258.305" height="332.542" rx="12" fill="#E9E9EA"/>
<rect x="347.797" y="255.254" width="258.305" height="178.983" rx="4" fill="#E9E9EA"/>
<rect x="347.797" y="102.712" width="258.305" height="27.4576" rx="4" fill="#E9E9EA"/>
<rect x="347.797" y="149.492" width="258.305" height="27.4576" rx="4" fill="#E9E9EA"/>
<rect x="256.271" width="278.644" height="358.983" rx="12" fill="#FCFCFC"/>
<path d="M59.6522 254.59C59.2852 254.782 59.1434 255.235 59.3355 255.602L62.4655 261.583C62.6575 261.949 63.1107 262.091 63.4777 261.899C63.8447 261.707 63.9865 261.254 63.7945 260.887L61.0123 255.571L66.3282 252.789C66.6952 252.597 66.837 252.144 66.645 251.777C66.4529 251.41 65.9997 251.268 65.6327 251.46L59.6522 254.59ZM330 513.051L329.862 512.314L330 513.051ZM606.102 235.424L606.836 235.269L606.836 235.269L606.102 235.424ZM456.639 127.559C456.32 127.825 456.277 128.298 456.542 128.616L460.864 133.801C461.129 134.119 461.602 134.162 461.92 133.897C462.238 133.632 462.281 133.159 462.016 132.841L458.175 128.232L462.784 124.391C463.102 124.125 463.145 123.652 462.88 123.334C462.615 123.016 462.142 122.973 461.824 123.238L456.639 127.559ZM59.776 255.97C60.2501 256.118 60.7207 256.275 61.188 256.439L61.6861 255.024C61.2023 254.854 60.7149 254.692 60.224 254.538L59.776 255.97ZM63.9526 257.522C64.8613 257.915 65.7573 258.339 66.6412 258.794L67.3273 257.46C66.4141 256.99 65.4877 256.551 64.5476 256.145L63.9526 257.522ZM69.2214 260.227C70.0674 260.733 70.9023 261.267 71.7266 261.83L72.5722 260.591C71.7237 260.012 70.8635 259.461 69.9909 258.94L69.2214 260.227ZM74.1595 263.595C74.9296 264.187 75.6904 264.804 76.4424 265.446L77.4162 264.305C76.6455 263.648 75.8649 263.014 75.0739 262.406L74.1595 263.595ZM78.6719 267.445C79.397 268.126 80.1138 268.831 80.8227 269.558L81.8967 268.51C81.1731 267.768 80.4407 267.048 79.6991 266.352L78.6719 267.445ZM82.8376 271.707C83.5022 272.444 84.16 273.201 84.8111 273.977L85.9604 273.014C85.2981 272.224 84.6286 271.453 83.9514 270.703L82.8376 271.707ZM86.7201 276.332C87.3206 277.098 87.9156 277.881 88.5053 278.679L89.712 277.788C89.114 276.978 88.5102 276.184 87.9005 275.407L86.7201 276.332ZM90.2591 281.123C90.8382 281.953 91.4123 282.798 91.9818 283.659L93.2327 282.831C92.6567 281.961 92.0756 281.105 91.4892 280.265L90.2591 281.123ZM93.579 286.131C94.1074 286.968 94.6319 287.818 95.1527 288.681L96.4369 287.906C95.9111 287.035 95.3813 286.176 94.8474 285.33L93.579 286.131ZM96.7045 291.307C97.2012 292.164 97.6947 293.034 98.1852 293.914L99.4955 293.184C99.0012 292.297 98.5036 291.42 98.0027 290.555L96.7045 291.307ZM99.6156 296.527C100.09 297.408 100.561 298.3 101.03 299.201L102.361 298.508C101.889 297.601 101.414 296.704 100.937 295.816L99.6156 296.527ZM102.43 301.933C102.871 302.808 103.311 303.691 103.748 304.583L105.095 303.922C104.655 303.025 104.213 302.137 103.769 301.257L102.43 301.933ZM105.056 307.282C105.49 308.189 105.923 309.105 106.354 310.028L107.713 309.393C107.28 308.466 106.845 307.546 106.409 306.634L105.056 307.282ZM107.631 312.793C108.04 313.691 108.449 314.594 108.857 315.505L110.226 314.892C109.817 313.978 109.406 313.071 108.995 312.17L107.631 312.793ZM110.076 318.254C110.482 319.177 110.887 320.106 111.291 321.04L112.668 320.445C112.263 319.508 111.857 318.576 111.45 317.651L110.076 318.254ZM112.49 323.835C112.878 324.746 113.266 325.663 113.653 326.584L115.036 326.002C114.648 325.079 114.259 324.161 113.87 323.247L112.49 323.835ZM114.814 329.362C115.201 330.292 115.587 331.228 115.973 332.167L117.361 331.597C116.974 330.656 116.587 329.719 116.199 328.786L114.814 329.362ZM117.127 334.987C117.502 335.907 117.876 336.83 118.251 337.757L119.642 337.195C119.267 336.267 118.891 335.342 118.516 334.422L117.127 334.987ZM119.376 340.55C119.752 341.484 120.127 342.421 120.503 343.362L121.896 342.806C121.52 341.864 121.144 340.926 120.768 339.99L119.376 340.55ZM121.633 346.195C122.002 347.121 122.371 348.051 122.741 348.983L124.135 348.429C123.765 347.497 123.396 346.567 123.027 345.64L121.633 346.195ZM123.851 351.78C124.222 352.715 124.593 353.652 124.966 354.592L126.36 354.039C125.988 353.1 125.616 352.162 125.245 351.227L123.851 351.78ZM126.086 357.417C126.456 358.351 126.828 359.288 127.2 360.226L128.594 359.672C128.222 358.734 127.85 357.798 127.48 356.864L126.086 357.417ZM128.312 363.022C128.684 363.956 129.058 364.891 129.432 365.827L130.825 365.271C130.451 364.335 130.078 363.4 129.706 362.467L128.312 363.022ZM130.56 368.641C130.937 369.579 131.315 370.518 131.695 371.458L133.085 370.896C132.706 369.957 132.328 369.019 131.952 368.082L130.56 368.641ZM132.826 374.248C133.204 375.179 133.585 376.111 133.967 377.043L135.355 376.474C134.973 375.543 134.593 374.613 134.215 373.683L132.826 374.248ZM135.118 379.842C135.504 380.775 135.892 381.709 136.281 382.643L137.666 382.065C137.277 381.133 136.89 380.201 136.505 379.269L135.118 379.842ZM137.45 385.431C137.841 386.358 138.233 387.285 138.628 388.211L140.008 387.624C139.614 386.699 139.222 385.774 138.832 384.848L137.45 385.431ZM139.819 390.991C140.219 391.917 140.62 392.843 141.024 393.769L142.399 393.169C141.996 392.246 141.595 391.322 141.197 390.397L139.819 390.991ZM142.243 396.542C142.651 397.464 143.061 398.384 143.473 399.304L144.842 398.69C144.43 397.773 144.021 396.855 143.615 395.936L142.243 396.542ZM144.719 402.061C145.137 402.979 145.558 403.895 145.982 404.811L147.343 404.181C146.921 403.268 146.501 402.354 146.084 401.439L144.719 402.061ZM147.261 407.554C147.69 408.467 148.123 409.379 148.558 410.29L149.911 409.642C149.477 408.735 149.046 407.826 148.618 406.915L147.261 407.554ZM149.875 413.017C150.316 413.925 150.761 414.83 151.21 415.734L152.553 415.067C152.107 414.167 151.663 413.265 151.223 412.361L149.875 413.017ZM152.565 418.439C153.02 419.339 153.478 420.237 153.94 421.132L155.273 420.444C154.813 419.553 154.356 418.658 153.903 417.762L152.565 418.439ZM155.342 423.822C155.813 424.717 156.288 425.609 156.766 426.498L158.087 425.787C157.611 424.902 157.138 424.014 156.669 423.123L155.342 423.822ZM158.213 429.157C158.699 430.04 159.189 430.921 159.683 431.798L160.99 431.063C160.498 430.19 160.011 429.313 159.527 428.434L158.213 429.157ZM161.182 434.432C161.688 435.31 162.197 436.184 162.711 437.055L164.003 436.292C163.492 435.426 162.985 434.556 162.482 433.683L161.182 434.432ZM164.266 439.656C164.788 440.52 165.315 441.379 165.847 442.235L167.121 441.444C166.593 440.593 166.069 439.738 165.549 438.879L164.266 439.656ZM167.455 444.793C168.001 445.649 168.551 446.5 169.106 447.347L170.36 446.526C169.809 445.684 169.262 444.837 168.72 443.987L167.455 444.793ZM170.785 449.876C171.349 450.714 171.919 451.548 172.493 452.377L173.726 451.523C173.155 450.699 172.59 449.871 172.029 449.038L170.785 449.876ZM174.232 454.85C174.82 455.674 175.413 456.493 176.012 457.307L177.22 456.419C176.626 455.611 176.037 454.797 175.453 453.978L174.232 454.85ZM177.83 459.743C178.442 460.549 179.059 461.35 179.682 462.145L180.863 461.22C180.245 460.431 179.632 459.636 179.025 458.836L177.83 459.743ZM181.567 464.514C182.202 465.299 182.843 466.079 183.49 466.852L184.641 465.89C183.999 465.123 183.363 464.349 182.733 463.57L181.567 464.514ZM185.461 469.168C186.124 469.934 186.793 470.694 187.468 471.447L188.585 470.445C187.916 469.699 187.252 468.946 186.595 468.187L185.461 469.168ZM189.513 473.686C190.2 474.425 190.894 475.158 191.595 475.884L192.674 474.843C191.98 474.123 191.293 473.397 190.611 472.664L189.513 473.686ZM193.725 478.05C194.442 478.766 195.166 479.474 195.897 480.174L196.935 479.092C196.212 478.398 195.495 477.697 194.785 476.988L193.725 478.05ZM198.109 482.254C198.853 482.939 199.604 483.617 200.362 484.287L201.355 483.163C200.605 482.5 199.861 481.829 199.125 481.15L198.109 482.254ZM202.656 486.272C203.428 486.926 204.207 487.571 204.993 488.208L205.937 487.043C205.16 486.413 204.389 485.774 203.626 485.127L202.656 486.272ZM207.373 490.095C208.174 490.715 208.982 491.327 209.797 491.931L210.689 490.725C209.883 490.128 209.084 489.523 208.292 488.909L207.373 490.095ZM212.262 493.71C213.085 494.291 213.916 494.863 214.755 495.426L215.591 494.18C214.762 493.624 213.94 493.059 213.126 492.484L212.262 493.71ZM217.294 497.087C218.148 497.632 219.01 498.167 219.879 498.693L220.656 497.41C219.796 496.89 218.945 496.361 218.101 495.823L217.294 497.087ZM222.512 500.243C223.383 500.742 224.263 501.232 225.15 501.712L225.864 500.393C224.987 499.919 224.118 499.435 223.257 498.941L222.512 500.243ZM227.827 503.121C228.727 503.581 229.635 504.031 230.552 504.471L231.201 503.119C230.296 502.684 229.399 502.239 228.509 501.785L227.827 503.121ZM233.324 505.762C234.245 506.178 235.175 506.584 236.112 506.979L236.696 505.597C235.769 505.206 234.851 504.806 233.941 504.395L233.324 505.762ZM238.896 508.116C239.832 508.485 240.776 508.844 241.727 509.193L242.244 507.785C241.304 507.44 240.371 507.085 239.446 506.72L238.896 508.116ZM244.606 510.211C245.573 510.54 246.549 510.859 247.532 511.167L247.981 509.736C247.009 509.431 246.045 509.116 245.089 508.791L244.606 510.211ZM250.408 512.033C251.366 512.309 252.332 512.576 253.305 512.833L253.688 511.382C252.726 511.128 251.771 510.865 250.824 510.592L250.408 512.033ZM256.248 513.574C257.237 513.811 258.233 514.038 259.237 514.255L259.554 512.789C258.561 512.574 257.575 512.35 256.598 512.115L256.248 513.574ZM262.271 514.875C263.238 515.061 264.211 515.238 265.191 515.406L265.444 513.927C264.474 513.762 263.511 513.586 262.555 513.402L262.271 514.875ZM268.154 515.881C269.149 516.03 270.151 516.169 271.161 516.298L271.352 514.811C270.353 514.682 269.361 514.544 268.376 514.397L268.154 515.881ZM274.211 516.658C275.235 516.769 276.267 516.869 277.306 516.96L277.436 515.466C276.407 515.376 275.386 515.276 274.372 515.167L274.211 516.658ZM280.257 517.189C281.244 517.257 282.238 517.316 283.239 517.365L283.314 515.867C282.322 515.818 281.337 515.76 280.359 515.693L280.257 517.189ZM286.262 517.488C287.276 517.52 288.297 517.543 289.325 517.556L289.345 516.056C288.326 516.043 287.314 516.02 286.309 515.989L286.262 517.488ZM292.428 517.57C293.428 517.566 294.435 517.553 295.448 517.531L295.416 516.032C294.411 516.053 293.413 516.066 292.422 516.07L292.428 517.57ZM298.408 517.444C299.401 517.407 300.399 517.362 301.404 517.309L301.325 515.811C300.328 515.864 299.337 515.909 298.352 515.945L298.408 517.444ZM304.437 517.124C305.455 517.054 306.478 516.975 307.507 516.889L307.382 515.394C306.36 515.48 305.344 515.558 304.334 515.627L304.437 517.124ZM310.615 516.603C311.596 516.506 312.582 516.401 313.574 516.288L313.405 514.798C312.42 514.91 311.44 515.014 310.466 515.111L310.615 516.603ZM316.512 515.934C317.496 515.809 318.487 515.676 319.482 515.536L319.273 514.051C318.284 514.19 317.301 514.322 316.323 514.446L316.512 515.934ZM322.485 515.094C323.491 514.938 324.503 514.776 325.521 514.606L325.273 513.126C324.262 513.295 323.257 513.457 322.257 513.611L322.485 515.094ZM328.59 514.072C329.105 513.979 329.62 513.885 330.138 513.788L329.862 512.314C329.348 512.41 328.835 512.504 328.324 512.596L328.59 514.072ZM330.138 513.788C330.635 513.695 331.133 513.602 331.629 513.508L331.35 512.034C330.855 512.128 330.359 512.221 329.862 512.314L330.138 513.788ZM334.6 512.938C335.588 512.747 336.573 512.553 337.556 512.357L337.263 510.886C336.283 511.081 335.3 511.275 334.314 511.466L334.6 512.938ZM340.495 511.764C341.473 511.565 342.447 511.363 343.419 511.16L343.112 509.692C342.143 509.895 341.17 510.096 340.195 510.295L340.495 511.764ZM346.328 510.544C347.294 510.337 348.259 510.128 349.22 509.917L348.899 508.452C347.94 508.662 346.978 508.871 346.013 509.077L346.328 510.544ZM352.18 509.259C353.164 509.038 354.145 508.815 355.123 508.59L354.787 507.128C353.811 507.353 352.832 507.575 351.851 507.796L352.18 509.259ZM358.049 507.909C359.022 507.68 359.992 507.449 360.959 507.216L360.608 505.758C359.643 505.99 358.676 506.22 357.706 506.449L358.049 507.909ZM363.853 506.511C364.814 506.274 365.773 506.035 366.729 505.794L366.363 504.34C365.409 504.58 364.453 504.818 363.494 505.055L363.853 506.511ZM369.645 505.052C370.623 504.8 371.598 504.546 372.57 504.29L372.188 502.84C371.218 503.095 370.246 503.348 369.271 503.599L369.645 505.052ZM375.477 503.516C376.443 503.256 377.406 502.994 378.367 502.73L377.969 501.284C377.011 501.547 376.051 501.809 375.087 502.068L375.477 503.516ZM381.239 501.932C382.193 501.664 383.145 501.395 384.093 501.123L383.68 499.681C382.734 499.952 381.785 500.221 380.833 500.488L381.239 501.932ZM386.973 500.288C387.943 500.004 388.91 499.718 389.873 499.43L389.444 497.993C388.483 498.28 387.519 498.565 386.552 498.848L386.973 500.288ZM392.755 498.559C393.712 498.267 394.666 497.973 395.617 497.676L395.171 496.244C394.223 496.54 393.271 496.833 392.317 497.125L392.755 498.559ZM398.461 496.781C399.406 496.481 400.347 496.178 401.286 495.874L400.823 494.447C399.887 494.751 398.948 495.052 398.006 495.352L398.461 496.781ZM404.138 494.939C405.097 494.622 406.053 494.302 407.006 493.981L406.526 492.56C405.576 492.88 404.623 493.199 403.667 493.515L404.138 494.939ZM409.853 493.009C410.799 492.683 411.742 492.355 412.681 492.025L412.184 490.61C411.247 490.939 410.308 491.266 409.365 491.591L409.853 493.009ZM415.489 491.029C416.422 490.695 417.351 490.358 418.278 490.02L417.763 488.611C416.84 488.948 415.913 489.284 414.983 489.617L415.489 491.029ZM421.106 488.976C422.052 488.624 422.994 488.27 423.933 487.913L423.4 486.511C422.465 486.866 421.525 487.22 420.583 487.571L421.106 488.976ZM426.739 486.836C427.671 486.476 428.599 486.112 429.524 485.747L428.973 484.352C428.051 484.716 427.126 485.078 426.197 485.438L426.739 486.836ZM432.288 484.646C433.209 484.275 434.126 483.902 435.04 483.527L434.471 482.14C433.56 482.513 432.646 482.885 431.728 483.254L432.288 484.646ZM437.839 482.368C438.769 481.98 439.695 481.589 440.617 481.196L440.028 479.816C439.11 480.208 438.187 480.597 437.261 480.984L437.839 482.368ZM443.371 480.011C444.286 479.613 445.197 479.214 446.104 478.812L445.497 477.441C444.593 477.841 443.685 478.239 442.774 478.635L443.371 480.011ZM448.814 477.601C449.73 477.188 450.643 476.773 451.551 476.356L450.924 474.993C450.019 475.409 449.11 475.822 448.198 476.234L448.814 477.601ZM454.292 475.084C455.201 474.658 456.107 474.229 457.009 473.799L456.363 472.445C455.464 472.874 454.562 473.301 453.655 473.725L454.292 475.084ZM459.703 472.501C460.597 472.066 461.487 471.629 462.373 471.19L461.707 469.846C460.824 470.283 459.937 470.719 459.047 471.152L459.703 472.501ZM465.042 469.855C465.945 469.399 466.844 468.941 467.738 468.48L467.052 467.146C466.161 467.605 465.266 468.061 464.366 468.516L465.042 469.855ZM470.41 467.092C471.296 466.627 472.178 466.16 473.056 465.691L472.349 464.368C471.475 464.836 470.596 465.301 469.713 465.764L470.41 467.092ZM475.678 464.277C476.551 463.802 477.419 463.325 478.283 462.845L477.555 461.534C476.695 462.011 475.83 462.487 474.961 462.96L475.678 464.277ZM480.926 461.365C481.803 460.869 482.675 460.371 483.542 459.871L482.793 458.571C481.929 459.07 481.061 459.566 480.188 460.059L480.926 461.365ZM486.133 458.364C486.991 457.859 487.846 457.353 488.696 456.844L487.926 455.557C487.079 456.063 486.228 456.568 485.373 457.071L486.133 458.364ZM491.239 455.307C492.103 454.78 492.963 454.25 493.818 453.718L493.026 452.444C492.174 452.974 491.318 453.502 490.457 454.027L491.239 455.307ZM496.37 452.116C497.215 451.579 498.057 451.041 498.893 450.5L498.079 449.24C497.246 449.779 496.408 450.315 495.566 450.849L496.37 452.116ZM501.389 448.871C502.22 448.323 503.046 447.773 503.868 447.221L503.031 445.976C502.213 446.526 501.391 447.073 500.564 447.618L501.389 448.871ZM506.373 445.521C507.203 444.952 508.029 444.381 508.849 443.808L507.99 442.578C507.173 443.149 506.352 443.718 505.525 444.284L506.373 445.521ZM511.295 442.081C512.106 441.503 512.911 440.923 513.712 440.341L512.83 439.128C512.033 439.707 511.231 440.284 510.425 440.859L511.295 442.081ZM516.124 438.57C516.935 437.968 517.742 437.363 518.543 436.757L517.638 435.561C516.841 436.165 516.038 436.766 515.23 437.365L516.124 438.57ZM520.932 434.931C521.723 434.32 522.509 433.706 523.289 433.091L522.361 431.913C521.584 432.525 520.802 433.135 520.015 433.743L520.932 434.931ZM525.616 431.238C526.4 430.607 527.18 429.973 527.954 429.338L527.002 428.179C526.232 428.811 525.456 429.442 524.675 430.07L525.616 431.238ZM530.275 427.411C531.044 426.766 531.807 426.119 532.564 425.47L531.588 424.331C530.835 424.977 530.076 425.62 529.311 426.261L530.275 427.411ZM534.82 423.517C535.57 422.86 536.314 422.202 537.053 421.541L536.054 420.423C535.319 421.08 534.578 421.735 533.832 422.388L534.82 423.517ZM539.298 419.513C540.041 418.834 540.777 418.154 541.508 417.471L540.484 416.375C539.757 417.054 539.025 417.731 538.286 418.405L539.298 419.513ZM543.684 415.416C544.403 414.729 545.117 414.04 545.825 413.349L544.777 412.275C544.073 412.963 543.363 413.648 542.648 414.331L543.684 415.416ZM547.97 411.23C548.683 410.518 549.39 409.804 550.091 409.087L549.019 408.038C548.322 408.751 547.619 409.461 546.91 410.169L547.97 411.23ZM552.176 406.931C552.865 406.21 553.548 405.488 554.225 404.763L553.128 403.739C552.456 404.46 551.777 405.178 551.092 405.895L552.176 406.931ZM556.257 402.56C556.937 401.814 557.611 401.066 558.279 400.316L557.158 399.319C556.495 400.064 555.825 400.808 555.149 401.549L556.257 402.56ZM560.262 398.059C560.916 397.305 561.565 396.549 562.207 395.791L561.062 394.821C560.424 395.575 559.78 396.327 559.129 397.076L560.262 398.059ZM564.123 393.5C564.766 392.721 565.402 391.939 566.032 391.156L564.864 390.216C564.238 390.994 563.605 391.77 562.966 392.545L564.123 393.5ZM567.902 388.801C568.519 388.014 569.129 387.225 569.732 386.434L568.54 385.525C567.94 386.31 567.334 387.094 566.721 387.876L567.902 388.801ZM571.525 384.052C572.128 383.241 572.723 382.428 573.312 381.612L572.096 380.734C571.511 381.544 570.919 382.352 570.321 383.158L571.525 384.052ZM575.057 379.161C575.631 378.342 576.199 377.522 576.76 376.699L575.521 375.854C574.964 376.671 574.4 377.486 573.829 378.3L575.057 379.161ZM578.423 374.224C578.98 373.382 579.531 372.538 580.074 371.692L578.812 370.881C578.272 371.721 577.726 372.56 577.172 373.396L578.423 374.224ZM581.682 369.148C582.211 368.299 582.732 367.447 583.247 366.594L581.962 365.82C581.452 366.667 580.934 367.512 580.409 368.356L581.682 369.148ZM584.77 364.028C585.279 363.156 585.78 362.282 586.274 361.407L584.968 360.67C584.477 361.539 583.98 362.406 583.474 363.271L584.77 364.028ZM587.733 358.777C588.212 357.898 588.684 357.018 589.148 356.136L587.82 355.438C587.36 356.313 586.892 357.187 586.416 358.059L587.733 358.777ZM590.521 353.48C590.977 352.581 591.426 351.68 591.866 350.778L590.519 350.119C590.081 351.015 589.636 351.909 589.183 352.801L590.521 353.48ZM593.166 348.066C593.591 347.161 594.009 346.254 594.418 345.346L593.051 344.729C592.645 345.63 592.23 346.53 591.808 347.428L593.166 348.066ZM595.63 342.604C596.03 341.68 596.422 340.755 596.806 339.828L595.42 339.253C595.039 340.173 594.65 341.092 594.254 342.008L595.63 342.604ZM597.934 337.043C598.302 336.113 598.662 335.182 599.015 334.25L597.611 333.72C597.262 334.645 596.905 335.568 596.54 336.49L597.934 337.043ZM600.054 331.431C600.394 330.485 600.726 329.537 601.05 328.589L599.63 328.104C599.309 329.045 598.98 329.985 598.642 330.924L600.054 331.431ZM601.997 325.739C602.304 324.788 602.604 323.836 602.895 322.883L601.46 322.444C601.171 323.39 600.875 324.334 600.57 325.277L601.997 325.739ZM603.75 319.996C604.028 319.031 604.297 318.065 604.557 317.098L603.109 316.708C602.851 317.667 602.584 318.625 602.309 319.582L603.75 319.996ZM605.315 314.194C605.559 313.224 605.794 312.253 606.022 311.282L604.561 310.94C604.336 311.903 604.102 312.866 603.86 313.827L605.315 314.194ZM606.684 308.343C606.896 307.363 607.099 306.381 607.294 305.4L605.823 305.107C605.63 306.081 605.428 307.054 605.217 308.026L606.684 308.343ZM607.854 302.451C608.032 301.466 608.202 300.479 608.364 299.492L606.883 299.25C606.723 300.229 606.555 301.207 606.378 302.184L607.854 302.451ZM608.823 296.519C608.968 295.527 609.104 294.535 609.232 293.542L607.744 293.351C607.617 294.335 607.483 295.319 607.339 296.302L608.823 296.519ZM609.588 290.562C609.699 289.565 609.8 288.568 609.893 287.571L608.4 287.432C608.308 288.42 608.207 289.409 608.097 290.396L609.588 290.562ZM610.147 284.576C610.223 283.577 610.29 282.578 610.349 281.578L608.851 281.49C608.793 282.481 608.727 283.472 608.651 284.462L610.147 284.576ZM610.498 278.578C610.539 277.577 610.572 276.576 610.595 275.575L609.096 275.539C609.072 276.532 609.04 277.524 608.999 278.517L610.498 278.578ZM610.641 272.57C610.647 271.568 610.645 270.566 610.634 269.564L609.134 269.581C609.145 270.574 609.147 271.567 609.141 272.56L610.641 272.57ZM610.574 266.56C610.546 265.56 610.509 264.56 610.463 263.559L608.964 263.628C609.01 264.62 609.047 265.611 609.075 266.603L610.574 266.56ZM610.299 260.558C610.236 259.558 610.164 258.558 610.084 257.558L608.588 257.678C608.668 258.67 608.74 259.661 608.802 260.653L610.299 260.558ZM609.817 254.568C609.719 253.573 609.613 252.577 609.498 251.582L608.008 251.754C608.122 252.741 608.227 253.728 608.324 254.715L609.817 254.568ZM609.128 248.598C608.996 247.605 608.856 246.612 608.707 245.619L607.223 245.842C607.371 246.826 607.51 247.811 607.641 248.795L609.128 248.598ZM608.236 242.658C608.071 241.672 607.897 240.686 607.714 239.7L606.239 239.973C606.42 240.95 606.593 241.928 606.757 242.906L608.236 242.658ZM607.141 236.745C607.041 236.253 606.94 235.761 606.836 235.269L605.368 235.579C605.471 236.067 605.572 236.555 605.671 237.043L607.141 236.745ZM606.836 235.269C606.73 234.768 606.621 234.27 606.511 233.774L605.047 234.101C605.156 234.591 605.263 235.084 605.368 235.579L606.836 235.269ZM605.819 230.826C605.579 229.853 605.329 228.888 605.071 227.933L603.623 228.325C603.878 229.269 604.125 230.223 604.362 231.185L605.819 230.826ZM604.247 225.024C603.96 224.052 603.663 223.091 603.357 222.139L601.929 222.598C602.232 223.539 602.525 224.489 602.809 225.449L604.247 225.024ZM602.41 219.311C602.075 218.348 601.73 217.395 601.376 216.452L599.972 216.98C600.322 217.911 600.663 218.853 600.994 219.804L602.41 219.311ZM600.283 213.65C599.905 212.716 599.518 211.793 599.122 210.879L597.746 211.476C598.137 212.378 598.519 213.29 598.892 214.212L600.283 213.65ZM597.881 208.117C597.458 207.206 597.026 206.306 596.584 205.416L595.241 206.082C595.676 206.961 596.103 207.85 596.521 208.749L597.881 208.117ZM595.205 202.722C594.733 201.83 594.252 200.948 593.762 200.077L592.455 200.812C592.938 201.672 593.413 202.543 593.879 203.423L595.205 202.722ZM592.255 197.477C591.735 196.607 591.207 195.749 590.669 194.9L589.402 195.703C589.933 196.54 590.454 197.388 590.967 198.246L592.255 197.477ZM589.031 192.387C588.467 191.546 587.894 190.716 587.312 189.897L586.089 190.765C586.663 191.574 587.228 192.393 587.785 193.223L589.031 192.387ZM585.538 187.465C584.933 186.658 584.32 185.863 583.699 185.078L582.523 186.008C583.136 186.783 583.741 187.569 584.338 188.364L585.538 187.465ZM581.796 182.735C581.153 181.964 580.502 181.203 579.843 180.453L578.716 181.443C579.366 182.183 580.009 182.934 580.644 183.696L581.796 182.735ZM577.819 178.207C577.137 177.469 576.447 176.742 575.751 176.026L574.675 177.071C575.363 177.779 576.044 178.497 576.717 179.225L577.819 178.207ZM573.62 173.887C572.901 173.183 572.175 172.49 571.443 171.807L570.42 172.904C571.143 173.578 571.86 174.263 572.57 174.958L573.62 173.887ZM569.215 169.779C568.462 169.11 567.703 168.451 566.938 167.804L565.968 168.948C566.724 169.588 567.474 170.239 568.218 170.9L569.215 169.779ZM564.62 165.886C563.836 165.252 563.047 164.629 562.253 164.017L561.336 165.204C562.122 165.81 562.902 166.426 563.677 167.052L564.62 165.886ZM559.853 162.208C559.041 161.611 558.224 161.023 557.403 160.445L556.54 161.672C557.353 162.244 558.161 162.825 558.964 163.416L559.853 162.208ZM554.926 158.742C554.09 158.181 553.25 157.629 552.406 157.087L551.595 158.349C552.431 158.886 553.262 159.432 554.089 159.987L554.926 158.742ZM549.858 155.488C549.001 154.962 548.14 154.445 547.276 153.938L546.517 155.232C547.372 155.734 548.225 156.245 549.074 156.766L549.858 155.488ZM544.665 152.441C543.789 151.949 542.909 151.467 542.028 150.994L541.319 152.316C542.192 152.784 543.063 153.262 543.932 153.749L544.665 152.441ZM539.361 149.595C538.467 149.137 537.572 148.688 536.675 148.249L536.015 149.595C536.904 150.031 537.791 150.476 538.677 150.93L539.361 149.595ZM533.958 146.946C533.049 146.52 532.14 146.104 531.23 145.696L530.616 147.065C531.519 147.469 532.42 147.882 533.321 148.304L533.958 146.946ZM528.467 144.486C527.545 144.092 526.624 143.706 525.702 143.329L525.135 144.718C526.048 145.091 526.963 145.474 527.877 145.865L528.467 144.486ZM522.899 142.209C521.966 141.844 521.033 141.488 520.102 141.141L519.577 142.547C520.502 142.891 521.427 143.244 522.354 143.606L522.899 142.209ZM517.264 140.108C516.319 139.772 515.377 139.445 514.436 139.126L513.954 140.546C514.888 140.863 515.824 141.188 516.761 141.521L517.264 140.108ZM511.569 138.176C510.615 137.868 509.664 137.568 508.717 137.277L508.275 138.71C509.216 139 510.161 139.298 511.108 139.604L511.569 138.176ZM505.822 136.408C504.86 136.127 503.903 135.854 502.95 135.589L502.548 137.034C503.495 137.297 504.446 137.568 505.401 137.848L505.822 136.408ZM500.03 134.797C499.06 134.541 498.095 134.293 497.136 134.053L496.772 135.509C497.724 135.747 498.683 135.993 499.648 136.248L500.03 134.797ZM494.2 133.339C493.219 133.106 492.246 132.883 491.282 132.667L490.954 134.131C491.913 134.345 492.88 134.567 493.854 134.798L494.2 133.339ZM488.338 132.027C487.346 131.818 486.364 131.617 485.393 131.424L485.101 132.896C486.066 133.087 487.042 133.287 488.028 133.495L488.338 132.027ZM482.454 130.859C481.449 130.672 480.458 130.493 479.48 130.323L479.222 131.8C480.194 131.97 481.18 132.147 482.179 132.333L482.454 130.859ZM476.536 129.827C475.526 129.663 474.532 129.507 473.557 129.36L473.333 130.843C474.303 130.989 475.29 131.144 476.295 131.307L476.536 129.827ZM470.574 128.926C469.564 128.785 468.577 128.654 467.615 128.53L467.424 130.018C468.381 130.141 469.363 130.272 470.367 130.412L470.574 128.926ZM464.637 128.164C463.601 128.042 462.599 127.93 461.632 127.827L461.474 129.319C462.435 129.421 463.432 129.532 464.462 129.654L464.637 128.164ZM458.637 127.524C458.141 127.477 457.658 127.432 457.187 127.389L457.051 128.883C457.52 128.925 458.001 128.97 458.493 129.017L458.637 127.524Z" fill="url(#paint1_linear_7037_12)"/>
<circle cx="61.5254" cy="80.8474" r="61.5254" fill="#FFDD76"/>
<circle opacity="0.56" cx="61.5253" cy="80.8475" r="34.0678" fill="#EECB64"/>
<path d="M47.4268 127.003C47.4906 126.945 47.5523 126.906 47.612 126.885C47.6687 126.863 47.7352 126.863 47.8113 126.884C47.8787 126.903 47.9461 126.944 48.0136 127.008C48.0774 127.073 48.1516 127.146 48.2363 127.227C48.3181 127.307 48.4161 127.385 48.5305 127.462C48.644 127.541 48.7813 127.603 48.9424 127.649C49.2206 127.727 49.4454 127.726 49.6169 127.645C49.7847 127.566 49.8971 127.425 49.9541 127.223C49.9904 127.094 49.9796 126.976 49.9215 126.868C49.8635 126.76 49.7773 126.656 49.6628 126.558C49.5455 126.458 49.4093 126.358 49.2543 126.257C49.0956 126.159 48.936 126.052 48.7755 125.937C48.6142 125.825 48.4607 125.703 48.3148 125.57C48.1659 125.437 48.0442 125.285 47.9496 125.116C47.8521 124.947 47.7892 124.755 47.7609 124.541C47.7318 124.331 47.7548 124.092 47.83 123.826C47.9134 123.53 48.0427 123.268 48.2179 123.039C48.3931 122.81 48.6061 122.627 48.8568 122.489C49.1038 122.353 49.3864 122.27 49.7048 122.24C50.0195 122.211 50.3583 122.249 50.7215 122.351C50.9206 122.407 51.1183 122.485 51.3147 122.585C51.5081 122.684 51.6911 122.797 51.8638 122.925C52.0356 123.055 52.1919 123.196 52.3329 123.346C52.4738 123.497 52.5895 123.653 52.6799 123.814L52.0448 124.384C51.9956 124.424 51.9387 124.452 51.8739 124.469C51.8055 124.487 51.7375 124.487 51.6702 124.468C51.5823 124.443 51.5023 124.391 51.4302 124.31C51.3551 124.229 51.2714 124.139 51.1791 124.04C51.0839 123.941 50.9709 123.843 50.8402 123.746C50.7095 123.649 50.5446 123.572 50.3454 123.516C50.076 123.44 49.8501 123.439 49.6677 123.514C49.4845 123.592 49.3565 123.76 49.2838 124.018C49.2417 124.167 49.2484 124.3 49.304 124.417C49.3595 124.534 49.446 124.642 49.5633 124.742C49.6778 124.84 49.8133 124.937 49.9699 125.032C50.1266 125.127 50.2864 125.227 50.4493 125.333C50.6114 125.442 50.7658 125.561 50.9125 125.691C51.0584 125.824 51.1797 125.977 51.2764 126.15C51.3694 126.324 51.4284 126.524 51.4534 126.75C51.4775 126.978 51.4475 127.241 51.3632 127.54C51.2955 127.78 51.1811 128.001 51.02 128.202C50.8589 128.403 50.6595 128.566 50.4217 128.692C50.1838 128.818 49.9139 128.895 49.6118 128.924C49.3089 128.955 48.9817 128.921 48.6303 128.822C48.4341 128.767 48.2483 128.697 48.0729 128.613C47.8937 128.531 47.7294 128.435 47.5798 128.327C47.4294 128.221 47.2944 128.106 47.1749 127.98C47.0516 127.857 46.9477 127.726 46.8633 127.589L47.4268 127.003Z" fill="#BB932C"/>
<path d="M40.3791 124.321L41.0986 122.946L39.2465 121.976L39.7755 120.965L41.6276 121.935L42.3619 120.531L39.9437 119.266L40.4939 118.215L44.2871 120.199L41.2039 126.091L37.4107 124.107L37.9609 123.055L40.3791 124.321Z" fill="#BB932C"/>
<path d="M32.5505 113.975L33.3342 113.024L36.4267 115.572L32.1976 120.704L31.0071 119.723L34.4525 115.542L32.5505 113.975Z" fill="#BB932C"/>
<path d="M23.4331 106.689C23.8165 106.399 24.2237 106.196 24.6546 106.08C25.0838 105.961 25.5118 105.93 25.9386 105.984C26.363 106.041 26.7728 106.187 27.1682 106.422C27.5617 106.655 27.9144 106.977 28.2265 107.39C28.5386 107.802 28.754 108.231 28.8727 108.675C28.9914 109.119 29.0212 109.555 28.9621 109.981C28.8988 110.407 28.7526 110.811 28.5235 111.194C28.2927 111.575 27.9855 111.91 27.6021 112.2C27.2187 112.49 26.8125 112.695 26.3833 112.813C25.9523 112.929 25.5246 112.959 25.1002 112.903C24.674 112.843 24.2632 112.696 23.8679 112.461C23.4726 112.226 23.1189 111.902 22.8068 111.49C22.4947 111.077 22.2815 110.649 22.167 110.205C22.0483 109.761 22.0194 109.327 22.0804 108.903C22.1413 108.479 22.2872 108.077 22.5181 107.696C22.7471 107.313 23.0521 106.978 23.4331 106.689ZM24.3858 107.949C24.1238 108.147 23.9141 108.359 23.7568 108.585C23.5971 108.813 23.4931 109.046 23.4448 109.285C23.3947 109.521 23.4005 109.761 23.4624 110.004C23.5243 110.247 23.6443 110.486 23.8223 110.722C24.0022 110.959 24.2017 111.142 24.4207 111.27C24.6379 111.396 24.8679 111.468 25.1108 111.487C25.3518 111.503 25.6036 111.465 25.8661 111.373C26.1262 111.283 26.3873 111.139 26.6494 110.941C26.9139 110.741 27.126 110.527 27.2857 110.299C27.4429 110.073 27.5467 109.842 27.5968 109.606C27.6451 109.367 27.6383 109.126 27.5764 108.883C27.5103 108.639 27.3873 108.399 27.2074 108.161C27.0293 107.925 26.8329 107.744 26.6182 107.616C26.401 107.491 26.1719 107.42 25.9308 107.404C25.6879 107.385 25.4364 107.421 25.1764 107.511C24.9138 107.603 24.6503 107.749 24.3858 107.949Z" fill="#BB932C"/>
<path d="M17.1865 94.7068L17.1231 94.4687C17.0644 94.2481 16.9531 94.1077 16.7891 94.0475L14.3046 93.1595C14.1702 93.104 14.0695 93.0332 14.0025 92.9471C13.9318 92.8589 13.8768 92.7413 13.8377 92.5942L13.4926 91.2975L16.5975 92.5115C16.8129 92.5991 16.981 92.7102 17.1019 92.8449C17.1133 92.7222 17.1436 92.6055 17.1929 92.4948C17.2422 92.3841 17.315 92.2734 17.4115 92.1627L19.8766 89.4285L20.2311 90.7605C20.2538 90.8458 20.2675 90.9208 20.2721 90.9857C20.276 91.0477 20.2721 91.1038 20.2603 91.1542C20.2485 91.2045 20.2307 91.2502 20.207 91.2912C20.1803 91.3329 20.1488 91.3743 20.1126 91.4155L18.2638 93.4661C18.1955 93.5409 18.1562 93.6238 18.1457 93.7148C18.1316 93.8035 18.1429 93.917 18.1797 94.0552L18.2759 94.4169L21.0105 93.6891L21.4072 95.1799L14.981 96.8902L14.5843 95.3994L17.1865 94.7068Z" fill="#BB932C"/>
<path d="M19.2422 83.5823L19.345 85.1306L12.7097 85.5714L12.6069 84.023L19.2422 83.5823Z" fill="#BB932C"/>
<path d="M13.2994 72.216L19.8895 73.1053L19.7821 73.9014C19.7662 74.019 19.7347 74.1161 19.6875 74.1926C19.6378 74.2657 19.5609 74.3351 19.4568 74.4009L15.1069 76.9779C15.2261 76.9817 15.3417 76.9896 15.4537 77.0017C15.563 77.0103 15.666 77.0211 15.7625 77.0341L19.295 77.5108L19.1131 78.8587L12.523 77.9694L12.6316 77.1643C12.6406 77.0979 12.6511 77.0425 12.6632 76.9981C12.6754 76.9537 12.6929 76.9146 12.7159 76.8809C12.7359 76.8467 12.7632 76.8151 12.7978 76.786C12.8324 76.7569 12.8782 76.7247 12.9352 76.6894L17.3159 74.089C17.1872 74.087 17.0637 74.0811 16.9452 74.0712C16.8238 74.061 16.7103 74.0487 16.6048 74.0345L13.1175 73.5639L13.2994 72.216Z" fill="#BB932C"/>
<path d="M19.0987 63.9379L19.9933 61.7495L22.5915 62.8116C22.6935 63.2215 22.7235 63.6265 22.6815 64.0268C22.6406 64.4243 22.5408 64.8174 22.3819 65.2061C22.1746 65.713 21.9069 66.1427 21.5788 66.4951C21.249 66.8435 20.8843 67.1085 20.4845 67.2903C20.082 67.4709 19.6564 67.5632 19.2077 67.5671C18.7562 67.5699 18.3052 67.4792 17.8545 67.295C17.3954 67.1073 17.0055 66.8592 16.6846 66.5505C16.3609 66.2407 16.1172 65.8879 15.9535 65.4923C15.791 65.0938 15.714 64.663 15.7226 64.1997C15.7323 63.7336 15.8385 63.2527 16.0411 62.757C16.1459 62.5007 16.2655 62.2686 16.3998 62.0605C16.5342 61.8525 16.6765 61.6691 16.8269 61.5103C16.9784 61.3487 17.1371 61.2098 17.303 61.0935C17.4689 60.9772 17.6363 60.8813 17.8052 60.8057L18.2655 61.4771C18.3376 61.5822 18.3636 61.6914 18.3435 61.8048C18.3246 61.9154 18.2543 62.0149 18.1328 62.1033C18.0191 62.1883 17.9176 62.2717 17.8283 62.3535C17.7373 62.4314 17.655 62.5161 17.5814 62.6076C17.5078 62.6992 17.4404 62.7998 17.3791 62.9095C17.3178 63.0193 17.2578 63.1459 17.1991 63.2896C17.0897 63.5571 17.0392 63.8175 17.0474 64.0707C17.0529 64.3228 17.1104 64.56 17.22 64.7823C17.3308 65.0018 17.4906 65.2019 17.6995 65.3826C17.9055 65.5621 18.1564 65.7123 18.4521 65.8332C18.7788 65.9668 19.0873 66.0403 19.3776 66.0538C19.668 66.0673 19.9338 66.0281 20.1752 65.9361C20.4178 65.8413 20.6322 65.6988 20.8184 65.5087C21.0029 65.3146 21.1522 65.0781 21.2662 64.7993C21.3364 64.6275 21.3828 64.4657 21.4054 64.3138C21.4292 64.1592 21.44 64.0042 21.4378 63.8488L20.5041 63.4671L20.2554 64.0755C20.2186 64.1656 20.1658 64.2262 20.0972 64.2573C20.0286 64.2885 19.9577 64.2891 19.8845 64.2591L19.0987 63.9379Z" fill="#BB932C"/>
<path d="M28.3449 44.9558L33.0929 49.6118L32.0064 50.7198L29.999 48.7513L28.1072 50.6804L30.1146 52.6489L29.0281 53.7569L24.2801 49.1009L25.3666 47.9929L27.3512 49.939L29.243 48.0099L27.2584 46.0638L28.3449 44.9558Z" fill="#BB932C"/>
<path d="M40.8898 40.1851C41.1348 40.5988 41.2906 41.0263 41.3575 41.4676C41.4269 41.9074 41.4103 42.3363 41.3077 42.7542C41.2035 43.1695 41.0123 43.5603 40.7341 43.9265C40.4585 44.2913 40.0982 44.6054 39.6531 44.8689C39.208 45.1324 38.758 45.2981 38.3031 45.3659C37.8481 45.4337 37.4123 45.4142 36.9954 45.3074C36.5796 45.1964 36.1943 45.0055 35.8395 44.7347C35.4873 44.4623 35.1887 44.1193 34.9438 43.7056C34.6989 43.2919 34.5417 42.8652 34.4722 42.4254C34.4054 41.984 34.4241 41.5557 34.5283 41.1404C34.6351 40.7236 34.8276 40.332 35.1058 39.9658C35.384 39.5995 35.7456 39.2846 36.1907 39.0211C36.6358 38.7575 37.0853 38.594 37.5392 38.5303C37.9941 38.4626 38.4286 38.4828 38.8429 38.5912C39.2571 38.6995 39.6403 38.8899 39.9925 39.1623C40.3473 39.4331 40.6464 39.774 40.8898 40.1851ZM39.531 40.9897C39.3635 40.7069 39.1765 40.4746 38.9699 40.2929C38.7617 40.1085 38.5417 39.9788 38.31 39.9039C38.0808 39.8274 37.8419 39.8062 37.5933 39.8402C37.3447 39.8742 37.0935 39.9664 36.8395 40.1168C36.5829 40.2687 36.3786 40.4463 36.2266 40.6494C36.0772 40.851 35.9797 41.0714 35.9339 41.3107C35.8908 41.5484 35.9 41.8028 35.9615 42.074C36.0215 42.3426 36.1353 42.6183 36.3027 42.901C36.4716 43.1864 36.6602 43.4213 36.8684 43.6057C37.075 43.7875 37.2929 43.9166 37.5221 43.9931C37.7539 44.068 37.994 44.0885 38.2426 44.0544C38.4923 44.0162 38.7454 43.9212 39.002 43.7692C39.256 43.6189 39.4584 43.4442 39.6094 43.2452C39.7587 43.0436 39.855 42.824 39.8981 42.5863C39.9439 42.347 39.9368 42.0931 39.8768 41.8245C39.8152 41.5533 39.6999 41.275 39.531 40.9897Z" fill="#BB932C"/>
<path d="M49.0316 34.9825C49.0097 35.0658 48.9794 35.1325 48.9408 35.1827C48.9051 35.232 48.8495 35.2683 48.7739 35.2918C48.7071 35.3125 48.6281 35.3147 48.537 35.2983C48.448 35.2782 48.3459 35.2573 48.2309 35.2356C48.1188 35.213 47.9939 35.2008 47.8563 35.1988C47.7178 35.194 47.5687 35.2164 47.4088 35.2659C47.1327 35.3515 46.9449 35.4751 46.8452 35.6366C46.7476 35.7943 46.7299 35.9734 46.792 36.174C46.8317 36.3018 46.9053 36.3953 47.0128 36.4543C47.1203 36.5134 47.2489 36.5531 47.3986 36.5736C47.5512 36.5932 47.7199 36.603 47.9047 36.603C48.0915 36.5993 48.2834 36.6019 48.4805 36.6108C48.6767 36.6169 48.8722 36.6359 49.0669 36.6679C49.2645 36.6991 49.449 36.7597 49.6203 36.8499C49.7945 36.9393 49.9516 37.0658 50.0916 37.2294C50.2306 37.3902 50.3412 37.6028 50.4232 37.8673C50.5142 38.1608 50.5485 38.4512 50.5261 38.7385C50.5037 39.0258 50.4249 39.2955 50.2896 39.5477C50.1564 39.7961 49.9645 40.0197 49.7139 40.2184C49.4654 40.4134 49.1609 40.5667 48.8005 40.6785C48.6029 40.7398 48.3946 40.7821 48.1757 40.8054C47.9596 40.8278 47.7444 40.8324 47.5301 40.8192C47.3148 40.8031 47.1072 40.7703 46.9071 40.7209C46.707 40.6714 46.525 40.6036 46.3613 40.5174L46.5837 39.6934C46.6032 39.6332 46.6357 39.5786 46.681 39.5295C46.7283 39.4766 46.7853 39.4398 46.8522 39.419C46.9394 39.392 47.0351 39.3926 47.1394 39.4208C47.2466 39.448 47.3658 39.478 47.497 39.5106C47.6311 39.5423 47.7793 39.5632 47.9418 39.5734C48.1042 39.5835 48.2842 39.5579 48.4818 39.4967C48.7492 39.4138 48.939 39.2912 49.0512 39.129C49.1624 38.9639 49.1784 38.7534 49.0991 38.4977C49.0531 38.3495 48.975 38.2415 48.8648 38.1737C48.7546 38.1059 48.6232 38.0623 48.4706 38.0427C48.3209 38.0222 48.1545 38.0149 47.9716 38.0206C47.7886 38.0264 47.5999 38.0292 47.4055 38.0289C47.2102 38.0258 47.0156 38.0097 46.8218 37.9806C46.6272 37.9485 46.4422 37.8864 46.2671 37.7942C46.094 37.6982 45.9356 37.5625 45.7921 37.3872C45.6476 37.209 45.5294 36.9717 45.4375 36.6752C45.3636 36.4369 45.3394 36.1896 45.365 35.9331C45.3907 35.6767 45.469 35.431 45.6 35.1961C45.731 34.9611 45.9154 34.7494 46.1533 34.561C46.3902 34.3696 46.6831 34.2199 47.0318 34.1117C47.2265 34.0514 47.4204 34.0088 47.6134 33.984C47.8084 33.9554 47.9982 33.9459 48.1828 33.9555C48.3664 33.9623 48.5426 33.9857 48.7111 34.0258C48.8816 34.0622 49.0398 34.1151 49.1856 34.1845L49.0316 34.9825Z" fill="#BB932C"/>
<path d="M59.6202 33.1312L57.7571 33.306L58.264 38.709L56.7281 38.8531L56.2212 33.4501L54.3581 33.6249L54.2438 32.4071L59.5059 31.9134L59.6202 33.1312Z" fill="#BB932C"/>
<path d="M76.8644 37.6701C76.7344 38.1329 76.5336 38.538 76.2622 38.8852C75.9945 39.2303 75.6754 39.5057 75.3047 39.7113C74.9348 39.9139 74.5222 40.0382 74.0668 40.084C73.6152 40.1278 73.1404 40.0797 72.6425 39.9397L70.1555 39.2408L71.9547 32.8389L74.4416 33.5378C74.9396 33.6778 75.3695 33.8855 75.7314 34.161C76.0962 34.4374 76.3837 34.7584 76.5938 35.124C76.804 35.4897 76.933 35.891 76.9809 36.328C77.0325 36.7628 76.9937 37.2102 76.8644 37.6701ZM75.3441 37.2429C75.4331 36.9265 75.4723 36.6294 75.4619 36.3515C75.4515 36.0736 75.3934 35.8249 75.2875 35.6055C75.1854 35.3841 75.0362 35.1952 74.8399 35.0389C74.6445 34.8796 74.4047 34.7601 74.1205 34.6802L73.1275 34.4012L71.9705 38.5182L72.9635 38.7973C73.2476 38.8772 73.5142 38.9015 73.7632 38.8703C74.013 38.8362 74.2387 38.7527 74.4404 38.6198C74.6459 38.4847 74.8254 38.3013 74.9791 38.0695C75.1327 37.8377 75.2544 37.5621 75.3441 37.2429Z" fill="#BB932C"/>
<path d="M84.4237 38.7072L83.6691 40.0631L85.4956 41.0797L84.9408 42.0767L83.1142 41.0602L82.3441 42.444L84.7289 43.7713L84.1519 44.8082L80.411 42.7263L83.6448 36.9156L87.3857 38.9975L86.8086 40.0344L84.4237 38.7072Z" fill="#BB932C"/>
<path d="M95.8047 50.1029C95.5486 50.3137 95.3455 50.5361 95.1953 50.7701C95.0474 51.0022 94.9533 51.2373 94.9129 51.4755C94.8744 51.7161 94.8911 51.9565 94.9629 52.197C95.039 52.4378 95.1718 52.6733 95.3613 52.9035C95.5489 53.1314 95.7526 53.3046 95.9724 53.4232C96.1945 53.5398 96.4264 53.6012 96.6679 53.6074C96.9113 53.6158 97.1611 53.5698 97.4173 53.4692C97.6758 53.3668 97.9331 53.2101 98.1892 52.9993C98.4429 52.7905 98.6437 52.57 98.7915 52.3379C98.9418 52.1039 99.0361 51.8666 99.0746 51.6261C99.1149 51.3879 99.0992 51.1486 99.0274 50.9082C98.9556 50.6678 98.8259 50.4336 98.6383 50.2057C98.4488 49.9755 98.242 49.8009 98.0179 49.6819C97.7958 49.5653 97.563 49.5027 97.3195 49.4943C97.078 49.4881 96.828 49.5363 96.5695 49.6388C96.3133 49.7393 96.0584 49.894 95.8047 50.1029ZM95.9 57.4141L95.0936 56.4345C94.9776 56.2936 94.8919 56.1513 94.8367 56.0076C94.781 55.8681 94.7629 55.7097 94.7822 55.5321L94.9725 54.3055C94.7635 54.1426 94.5642 53.946 94.3747 53.7158C94.0459 53.3164 93.8131 52.8972 93.6763 52.4581C93.5394 52.019 93.4918 51.5853 93.5333 51.157C93.5791 50.7291 93.7086 50.319 93.9217 49.9268C94.1367 49.537 94.4298 49.1893 94.801 48.8837C95.1721 48.5781 95.5697 48.3573 95.9936 48.2211C96.4194 48.0873 96.8455 48.04 97.2719 48.0792C97.7002 48.1207 98.1167 48.2508 98.5213 48.4694C98.926 48.6881 99.2927 48.9971 99.6214 49.3964C99.9502 49.7958 100.181 50.2148 100.313 50.6535C100.45 51.0926 100.497 51.5251 100.454 51.9511C100.41 52.377 100.281 52.7849 100.066 53.1748C99.8526 53.567 99.5617 53.9149 99.1929 54.2185C98.972 54.4003 98.7401 54.5518 98.4971 54.6731C98.2583 54.7948 98.0139 54.8857 97.7638 54.9457C97.5156 55.0081 97.263 55.0388 97.0059 55.0376C96.7507 55.0388 96.4986 55.0079 96.2496 54.9448L95.9 57.4141Z" fill="#BB932C"/>
<path d="M101.533 62.4711C101.619 62.6593 101.726 62.8129 101.854 62.9318C101.985 63.0522 102.133 63.1371 102.296 63.1865C102.459 63.2358 102.635 63.2489 102.826 63.2257C103.02 63.204 103.223 63.1445 103.436 63.0472L107.02 61.4119L107.66 62.8153L104.077 64.4506C103.706 64.6199 103.338 64.7144 102.972 64.7341C102.608 64.7566 102.262 64.7069 101.936 64.585C101.609 64.4631 101.31 64.27 101.039 64.0058C100.768 63.7415 100.541 63.4087 100.358 63.0073C100.173 62.6032 100.07 62.2122 100.048 61.8342C100.026 61.4563 100.076 61.104 100.198 60.7775C100.32 60.4509 100.509 60.1574 100.765 59.8969C101.02 59.6364 101.334 59.4215 101.704 59.2522L105.288 57.6168L105.928 59.0202L102.349 60.6537C102.136 60.751 101.957 60.8644 101.812 60.9941C101.671 61.1253 101.565 61.2692 101.492 61.426C101.423 61.5814 101.39 61.7471 101.393 61.9228C101.4 62.1001 101.447 62.2828 101.533 62.4711Z" fill="#BB932C"/>
<path d="M106.404 73.5238L108.084 72.5901C108.19 72.5244 108.314 72.4521 108.458 72.3733C108.604 72.294 108.762 72.2124 108.932 72.1287C108.742 72.1172 108.564 72.1002 108.399 72.0778C108.234 72.0554 108.09 72.0322 107.969 72.0081L106.076 71.7325L106.404 73.5238ZM104.344 76.3922L104.129 75.2159C104.105 75.0842 104.115 74.9725 104.16 74.8807C104.208 74.7884 104.277 74.7125 104.365 74.6531L105.434 74.0584L104.979 71.5712L103.768 71.3936C103.679 71.376 103.591 71.3301 103.507 71.2559C103.425 71.1842 103.373 71.0854 103.35 70.9597L103.134 69.7745L110.138 71.1101L110.422 72.6635L104.344 76.3922Z" fill="#BB932C"/>
<path d="M105.648 84.7545L104.417 84.7057L104.576 80.7015L111.22 80.9648L111.159 82.5063L105.746 82.2918L105.648 84.7545Z" fill="#BB932C"/>
<path d="M103.453 90.7311L103.781 89.2145L110.28 90.6224L109.952 92.139L103.453 90.7311Z" fill="#BB932C"/>
<path d="M102.893 102.169C102.453 101.976 102.08 101.72 101.774 101.403C101.469 101.09 101.241 100.736 101.089 100.34C100.94 99.9455 100.875 99.5196 100.893 99.0623C100.912 98.6089 101.026 98.1455 101.234 97.6719L102.273 95.3066L108.361 97.9805L107.323 100.346C107.115 100.819 106.849 101.216 106.526 101.536C106.201 101.859 105.843 102.099 105.452 102.256C105.061 102.413 104.645 102.485 104.206 102.471C103.768 102.462 103.331 102.361 102.893 102.169ZM103.528 100.723C103.829 100.855 104.118 100.935 104.394 100.964C104.671 100.992 104.925 100.969 105.157 100.895C105.391 100.825 105.599 100.704 105.781 100.531C105.966 100.36 106.118 100.139 106.236 99.8686L106.651 98.9241L102.735 97.2046L102.321 98.149C102.202 98.4193 102.141 98.6798 102.137 98.9307C102.136 99.1828 102.187 99.418 102.291 99.6363C102.396 99.8585 102.552 100.062 102.76 100.246C102.969 100.431 103.224 100.59 103.528 100.723Z" fill="#BB932C"/>
<path d="M97.2722 109.332L99.0879 109.963C99.2072 109.998 99.344 110.043 99.4982 110.098C99.6549 110.154 99.8212 110.218 99.997 110.289C99.8785 110.139 99.7727 109.995 99.6796 109.857C99.5864 109.719 99.5083 109.597 99.445 109.49L98.3902 107.894L97.2722 109.332ZM93.7608 109.706L94.4949 108.762C94.5771 108.656 94.6674 108.59 94.7659 108.562C94.8668 108.536 94.9687 108.537 95.0717 108.563L96.2278 108.965L97.7801 106.969L97.106 105.947C97.0593 105.869 97.0354 105.773 97.0344 105.66C97.0338 105.552 97.0728 105.447 97.1513 105.346L97.891 104.395L101.56 110.51L100.59 111.756L93.7608 109.706Z" fill="#BB932C"/>
<path d="M88.0402 119.139C87.7444 118.76 87.5372 118.358 87.4183 117.933C87.2989 117.513 87.2663 117.093 87.3204 116.673C87.3763 116.255 87.5208 115.849 87.7537 115.455C87.9861 115.065 88.3062 114.711 88.7141 114.393L90.7508 112.804L94.8412 118.047L92.8045 119.636C92.3966 119.954 91.9745 120.177 91.5381 120.306C91.0993 120.436 90.6704 120.477 90.2513 120.43C89.8323 120.382 89.4326 120.248 89.0522 120.028C88.6714 119.812 88.334 119.515 88.0402 119.139ZM89.2853 118.167C89.4874 118.426 89.7035 118.634 89.9335 118.79C90.1635 118.947 90.3982 119.047 90.6376 119.092C90.8766 119.141 91.1171 119.133 91.3593 119.067C91.6034 119.004 91.8418 118.882 92.0745 118.7L92.8878 118.066L90.2573 114.694L89.444 115.329C89.2113 115.51 89.0337 115.71 88.9113 115.929C88.7907 116.151 88.7242 116.382 88.7117 116.623C88.6988 116.869 88.7401 117.122 88.8358 117.383C88.9314 117.644 89.0813 117.906 89.2853 118.167Z" fill="#BB932C"/>
<path d="M82.7249 124.613L82.0799 123.201L80.1787 124.07L79.7044 123.032L81.6057 122.164L80.9474 120.723L78.465 121.858L77.9717 120.778L81.8656 118.999L84.6295 125.047L80.7357 126.827L80.2425 125.747L82.7249 124.613Z" fill="#BB932C"/>
<path d="M69.3382 73.8489C69.8018 73.8489 70.1758 74.2136 70.1758 74.6543C70.1758 75.1051 69.8071 75.4697 69.3382 75.4697C68.8641 75.4697 68.49 75.1051 68.49 74.6543C68.49 74.2085 68.8641 73.8489 69.3382 73.8489ZM61.536 68.1356C62.1313 68.1356 62.6054 68.5965 62.6054 69.1638C62.6054 69.7362 62.126 70.192 61.536 70.192C60.9512 70.192 60.4718 69.7362 60.4718 69.1638C60.4665 68.5965 60.9512 68.1356 61.536 68.1356ZM53.7127 73.8489C54.171 73.8489 54.5556 74.2136 54.5556 74.6543C54.5556 75.1051 54.171 75.4697 53.7127 75.4697C53.2438 75.4697 52.8645 75.1051 52.8645 74.6543C52.8645 74.2085 53.2438 73.8489 53.7127 73.8489ZM46.7797 74.9227C46.7797 74.4821 47.159 74.1174 47.6278 74.1174C48.0915 74.1174 48.4708 74.4821 48.4708 74.9227C48.4708 75.3735 48.0915 75.7382 47.6278 75.7382C47.1537 75.7382 46.7797 75.3735 46.7797 74.9227ZM70.1442 90.067C69.9493 90.5026 69.7281 90.5938 69.2803 90.4368C68.6797 90.2139 65.7716 89.0844 61.4517 89.049C57.1317 89.0844 54.2237 90.1886 53.6178 90.4115C53.1753 90.5584 52.954 90.5077 52.7696 90.067C52.5168 89.4795 52.6169 89.2465 53.0488 89.0439C54.1762 88.5425 57.2792 87.2053 61.2515 87.2053H61.4201H61.4306H61.4569H61.4727H61.4938H61.5096H61.6729C65.6346 87.2053 68.7324 88.5476 69.8756 89.0439C70.2918 89.2465 70.3918 89.4744 70.1442 90.067ZM74.854 77.1969L71.0609 87.3168C70.7396 88.1373 70.4182 88.036 69.844 87.722C69.2908 87.4029 65.9139 86.0353 61.7467 86.0353H61.2831C57.1212 86.0353 53.7495 87.4029 53.1806 87.722C52.6274 88.036 52.2955 88.1879 51.9741 87.3725L48.1757 77.2222C48.1757 77.2222 47.8649 76.4321 48.2232 76.3156C48.5551 76.2143 48.7921 76.6549 48.9238 76.9082C49.2347 77.4755 50.8573 80.4841 51.5896 81.2742C52.2428 81.9631 52.8276 81.9833 53.1753 81.9023C53.9339 81.7402 54.2658 80.9146 54.0287 78.6556C53.7917 76.4017 53.6758 76.1181 54.0762 76.0421C54.4291 75.9762 54.545 76.5384 54.6399 76.8069C54.7347 77.0753 55.5144 80.2815 56.842 80.7576C57.8851 81.1324 58.7227 80.793 59.2759 79.5977C59.8923 78.2504 60.5034 75.723 60.7721 73.4133C61.0144 71.281 61.046 70.4959 61.4517 70.4959H61.5676C61.9785 70.4959 62.0048 71.3924 62.2577 73.5248C62.5317 75.8395 63.1428 78.3112 63.7539 79.6585C64.2965 80.8589 65.1394 81.1628 66.1878 80.793C67.5101 80.3169 68.3004 77.0956 68.3899 76.8272C68.49 76.5536 68.6007 75.9864 68.9536 76.0522C69.3646 76.1282 69.2328 76.4118 69.0063 78.6657C68.7692 80.9247 69.1011 81.7453 69.8598 81.9124C70.2075 81.9934 70.787 81.9681 71.4455 81.2843C72.1778 80.4942 73.7951 77.4856 74.106 76.9183C74.2429 76.66 74.48 76.2194 74.8066 76.3257C75.1754 76.4371 74.854 77.1969 74.854 77.1969ZM75.4283 75.7382C74.9541 75.7382 74.5748 75.3735 74.5748 74.9227C74.5748 74.4821 74.9541 74.1174 75.4283 74.1174C75.8919 74.1174 76.2712 74.4821 76.2712 74.9227C76.2712 75.3735 75.8919 75.7382 75.4283 75.7382Z" fill="#FCFCFC"/>
<path opacity="0.1" d="M129.451 468.035L79.882 385.935L131.182 370.736L168.686 335.983L215.802 414.947L193.371 447.18L129.451 468.035Z" fill="url(#paint2_linear_7037_12)"/>
<path d="M209.918 407.95L209.952 407.997C210.024 408.14 210.04 408.328 209.937 408.526L209.921 408.567L202.781 422.778L200.094 428.105L198.214 431.83L197.339 433.577L196.617 435.013L194.737 438.738L191.939 444.283L184.034 460.013C183.976 460.147 183.866 460.256 183.743 460.326C183.62 460.407 183.465 460.45 183.325 460.442L178.592 460.381L153.741 460.078L146.448 459.989L142.891 459.946L137.51 459.881L125.733 459.739L125.683 459.733C125.463 459.732 125.295 459.627 125.205 459.505L125.171 459.459C125.145 459.391 125.121 459.333 125.116 459.274C125.112 459.235 125.109 459.195 125.115 459.155C125.128 459.074 125.151 458.992 125.184 458.91L132.051 445.241L137.781 433.849L151.076 407.414C151.213 407.154 151.497 406.98 151.786 406.985L181.369 407.349L194.113 407.507L209.408 407.696C209.498 407.698 209.579 407.721 209.661 407.744C209.692 407.761 209.734 407.777 209.765 407.794C209.839 407.848 209.873 407.895 209.918 407.95Z" fill="url(#paint3_linear_7037_12)"/>
<g filter="url(#filter0_d_7037_12)">
<path d="M191.951 444.303L184.046 460.032C183.988 460.166 183.878 460.275 183.755 460.346C183.632 460.426 183.476 460.469 183.336 460.461L178.603 460.4L153.753 460.097L146.459 460.008L142.902 459.965L137.522 459.9L135.391 457.227C134.12 455.644 134.388 453.321 135.982 452.06L171.181 424.071C172.763 422.8 175.076 423.069 176.348 424.662L180.555 429.954L183.378 433.503L185.364 435.99L187.049 438.115L189.025 440.602L191.951 444.303Z" fill="#FCFCFC"/>
</g>
<path opacity="0.5" d="M175.707 429.713L141.123 457.212C140.983 457.323 140.772 457.302 140.66 457.162L139.221 455.355C139.11 455.215 139.131 455.004 139.271 454.892L173.855 427.394C173.995 427.283 174.206 427.304 174.317 427.444L175.756 429.251C175.868 429.391 175.846 429.592 175.707 429.713Z" fill="#4DCBD3"/>
<path d="M163.055 446.378C163.166 446.518 163.145 446.729 162.995 446.841L146.44 460.009L142.883 459.967L142.636 459.65C142.515 459.511 142.537 459.3 142.686 459.187L161.153 444.511C161.291 444.39 161.493 444.422 161.616 444.571L163.055 446.378Z" fill="#4DCBD3"/>
<g filter="url(#filter1_d_7037_12)">
<path d="M202.772 422.788L200.085 428.116L198.205 431.841L197.33 433.588L196.608 435.024L194.728 438.749L191.93 444.294L184.025 460.024C183.967 460.158 183.857 460.267 183.734 460.337C183.611 460.418 183.456 460.461 183.316 460.453L178.583 460.392L170.998 436.887C170.375 434.959 171.431 432.888 173.378 432.263L180.535 429.955L202.772 422.788Z" fill="#FCFCFC"/>
</g>
<path d="M200.085 428.116L198.205 431.84L185.354 435.991L176.386 438.892C176.212 438.947 176.024 438.843 175.959 438.67L175.252 436.461C175.198 436.297 175.291 436.109 175.465 436.055L183.358 433.505L200.085 428.116Z" fill="#4DCBD3"/>
<g opacity="0.5">
<path opacity="0.5" d="M196.619 435.033L194.739 438.758L189.015 440.603L178.071 444.132C177.896 444.187 177.709 444.093 177.654 443.919L176.947 441.71C176.892 441.536 176.986 441.349 177.16 441.294L187.039 438.106L196.619 435.033Z" fill="#4DCBD3"/>
</g>
<g filter="url(#filter2_d_7037_12)">
<path d="M138.92 463.084L186.003 464.044L205.613 423.53C205.613 423.53 210.444 431.903 210.98 432.355C211.517 432.806 190.605 471.611 190.605 471.611L144.391 472.07L138.92 463.084Z" fill="#606060"/>
</g>
<path d="M209.952 407.997L241.019 459.096C241.368 459.673 241.493 460.319 241.436 460.932C241.344 461.835 240.85 462.684 240.017 463.184L160.371 511.615C159.539 512.125 158.557 512.17 157.722 511.833C157.155 511.603 156.632 511.19 156.284 510.613L125.216 459.514C125.307 459.646 125.474 459.741 125.693 459.742L125.743 459.748L153.741 460.078L183.325 460.442C183.465 460.45 183.62 460.407 183.743 460.326C183.865 460.246 183.975 460.137 184.034 460.013L197.33 433.578L209.91 408.558L209.927 408.517C210.04 408.328 210.024 408.14 209.952 407.997Z" fill="#FFDD76"/>
<path opacity="0.8" d="M200.239 487.455L158.467 512.854C157.89 513.202 157.272 512.728 157.551 512.156L170.158 487.095L183.453 460.66C183.58 460.4 183.874 460.226 184.163 460.231L213.746 460.594L241.794 460.931C242.432 460.935 242.578 461.709 242.001 462.067L200.239 487.455Z" fill="url(#paint4_linear_7037_12)"/>
<path d="M123.936 336.244C123.936 336.244 125.604 341.367 130.615 341.635C135.626 341.904 136.937 340.636 136.937 340.636C136.937 340.636 134.216 349.77 126.768 356.827C126.768 356.827 119.727 361.599 111.012 352.238C111.02 352.244 120.506 346.257 123.936 336.244Z" fill="url(#paint5_linear_7037_12)"/>
<rect x="196.271" y="80.339" width="241.017" height="83.3898" rx="8" fill="#F6D36C"/>
<rect x="274.576" y="36.6101" width="241.017" height="21.3559" rx="4" fill="#4DCBD3"/>
<rect x="475.932" y="301.017" width="95.5932" height="33.5593" rx="4" fill="#4DCBD3"/>
<rect x="274.576" y="202.373" width="241.017" height="21.3559" rx="4" fill="#E9E9EA"/>
<rect x="274.576" y="241.017" width="129.153" height="21.3559" rx="4" fill="#E9E9EA"/>
<path d="M525.315 423.149C525.315 423.149 530.473 422.58 535.831 429.419C535.831 429.419 536.59 421.709 545.316 418.951C545.316 418.951 539.948 412.113 535.768 412.378C535.766 412.368 528.37 412.585 525.315 423.149Z" fill="#FCFCFC"/>
<path d="M593.124 189.119C593.124 189.119 593.168 194.309 585.822 198.947C585.822 198.947 593.416 200.482 595.277 209.442C595.277 209.442 602.623 204.793 602.782 200.607C602.792 200.607 603.324 193.227 593.124 189.119Z" fill="#FCFCFC"/>
<defs>
<filter id="filter0_d_7037_12" x="131.588" y="419.268" width="73.3627" height="53.1938" filterUnits="userSpaceOnUse" color-interpolation-filters="sRGB">
<feFlood flood-opacity="0" result="BackgroundImageFix"/>
<feColorMatrix in="SourceAlpha" type="matrix" values="0 0 0 0 0 0 0 0 0 0 0 0 0 0 0 0 0 0 127 0" result="hardAlpha"/>
<feOffset dx="5" dy="4"/>
<feGaussianBlur stdDeviation="4"/>
<feColorMatrix type="matrix" values="0 0 0 0 0.675 0 0 0 0 0.524587 0 0 0 0 0.137812 0 0 0 0.1 0"/>
<feBlend mode="normal" in2="BackgroundImageFix" result="effect1_dropShadow_7037_12"/>
<feBlend mode="normal" in="SourceGraphic" in2="effect1_dropShadow_7037_12" result="shape"/>
</filter>
<filter id="filter1_d_7037_12" x="162.819" y="421.788" width="43.9534" height="49.6655" filterUnits="userSpaceOnUse" color-interpolation-filters="sRGB">
<feFlood flood-opacity="0" result="BackgroundImageFix"/>
<feColorMatrix in="SourceAlpha" type="matrix" values="0 0 0 0 0 0 0 0 0 0 0 0 0 0 0 0 0 0 127 0" result="hardAlpha"/>
<feOffset dx="-2" dy="5"/>
<feGaussianBlur stdDeviation="3"/>
<feColorMatrix type="matrix" values="0 0 0 0 0.5 0 0 0 0 0.380417 0 0 0 0 0.0729167 0 0 0 0.1 0"/>
<feBlend mode="normal" in2="BackgroundImageFix" result="effect1_dropShadow_7037_12"/>
<feBlend mode="normal" in="SourceGraphic" in2="effect1_dropShadow_7037_12" result="shape"/>
</filter>
<filter id="filter2_d_7037_12" x="126.92" y="409.53" width="88.0703" height="64.5405" filterUnits="userSpaceOnUse" color-interpolation-filters="sRGB">
<feFlood flood-opacity="0" result="BackgroundImageFix"/>
<feColorMatrix in="SourceAlpha" type="matrix" values="0 0 0 0 0 0 0 0 0 0 0 0 0 0 0 0 0 0 127 0" result="hardAlpha"/>
<feOffset dx="-4" dy="-6"/>
<feGaussianBlur stdDeviation="4"/>
<feColorMatrix type="matrix" values="0 0 0 0 0.479167 0 0 0 0 0.362889 0 0 0 0 0.0638889 0 0 0 0.15 0"/>
<feBlend mode="normal" in2="BackgroundImageFix" result="effect1_dropShadow_7037_12"/>
<feBlend mode="normal" in="SourceGraphic" in2="effect1_dropShadow_7037_12" result="shape"/>
</filter>
<linearGradient id="paint0_linear_7037_12" x1="342.237" y1="400.678" x2="341.761" y2="540" gradientUnits="userSpaceOnUse">
<stop offset="0.137749" stop-color="#D1D4DB"/>
<stop offset="0.620358" stop-color="#E6E8EB"/>
<stop offset="0.860326" stop-color="#F5F6F7"/>
</linearGradient>
<linearGradient id="paint1_linear_7037_12" x1="557.797" y1="248.136" x2="-19.3221" y2="381.356" gradientUnits="userSpaceOnUse">
<stop stop-color="#4DCBD3"/>
<stop offset="1" stop-color="#4DCBD3" stop-opacity="0"/>
</linearGradient>
<linearGradient id="paint2_linear_7037_12" x1="181.866" y1="457.543" x2="132.147" y2="374.142" gradientUnits="userSpaceOnUse">
<stop stop-color="#4DCBD3"/>
<stop offset="1" stop-color="#4DCBD3" stop-opacity="0"/>
</linearGradient>
<linearGradient id="paint3_linear_7037_12" x1="152.177" y1="408.027" x2="184.32" y2="461.733" gradientUnits="userSpaceOnUse">
<stop offset="0.0112" stop-color="#FFDD76"/>
<stop offset="1" stop-color="#E8AE46"/>
</linearGradient>
<linearGradient id="paint4_linear_7037_12" x1="174.667" y1="445.418" x2="195.85" y2="480.254" gradientUnits="userSpaceOnUse">
<stop offset="0.0112" stop-color="#E8AE46"/>
<stop offset="1" stop-color="#E8AE46" stop-opacity="0"/>
</linearGradient>
<linearGradient id="paint5_linear_7037_12" x1="128.644" y1="358.983" x2="116.441" y2="332.542" gradientUnits="userSpaceOnUse">
<stop stop-color="#FCFCFC"/>
<stop offset="1" stop-color="#FCFCFC" stop-opacity="0.6"/>
</linearGradient>
</defs>
</svg>
